<svg width="3561" height="1191" xmlns="http://www.w3.org/2000/svg" xmlns:xlink="http://www.w3.org/1999/xlink" overflow="hidden"><defs><clipPath id="clip0"><rect x="249" y="529" width="3561" height="1191"/></clipPath></defs><g clip-path="url(#clip0)" transform="translate(-249 -529)"><path d="M1220.14 1419.13C1220.43 1435.75 1220.71 1452.38 1221 1469L916 1297.88 977.685 1291 1220.14 1419.13Z" fill="#8E8E8E" fill-rule="evenodd"/><path d="M1894.44 736 1589 746.32 1622.56 1246 1928 1223.64 1894.44 736Z" fill="#8E8E8E" fill-rule="evenodd"/><path d="M1309 1268.26 1309 1316.36 1604.61 1448.62 2146 1400.53 3038 1708 3036.28 1671.93 2213.03 1395.38 2434.74 1374.76 2420.99 1275.14 1926.01 1136 1929.45 1223.6 1309 1268.26Z" fill="#8E8E8E" fill-rule="evenodd"/><path d="M3022.96 1471.65 3019.5 1699.34 3041.41 1711.92 3069.08 1716.5 3092.14 1714.21 3110.59 1711.92 3131.35 1702.77C3131.73 1622.68 3132.12 1542.59 3132.5 1462.5L3022.96 1471.65Z" stroke="#000000" stroke-width="4.58333" stroke-miterlimit="8" fill="#FFFFFF" fill-rule="evenodd"/><path d="M250.719 897.159C250.146 1007.8 249.573 1118.44 249 1229.09L328.076 1291 610 1265.2 592.81 921.237 524.048 892 250.719 897.159Z" fill="#8E8E8E" fill-rule="evenodd"/><path d="M0 0 1306.25 17.1875" stroke="#000000" stroke-width="4.58333" stroke-miterlimit="8" fill="none" fill-rule="evenodd" transform="matrix(1 0 0 -1 575.5 548.687)"/><path d="M0 0 1315.42 96.25" stroke="#000000" stroke-width="4.58333" stroke-miterlimit="8" fill="none" fill-rule="evenodd" transform="matrix(1 0 0 -1 614.5 1317.75)"/><path d="M614.458 1318.5 575.5 548.5" stroke="#000000" stroke-width="4.58333" stroke-miterlimit="8" fill="none" fill-rule="evenodd"/><path d="M1929.62 1222.44 1881.5 531.5" stroke="#000000" stroke-width="4.58333" stroke-miterlimit="8" fill="none" fill-rule="evenodd"/><path d="M0 0 0.000360892 201.667" stroke="#000000" stroke-width="4.58333" stroke-miterlimit="8" fill="none" fill-rule="evenodd" transform="matrix(1 0 0 -1 1220.5 1474.17)"/><path d="M0 0 0.000360892 201.667" stroke="#000000" stroke-width="4.58333" stroke-miterlimit="8" fill="none" fill-rule="evenodd" transform="matrix(1 0 0 -1 1309.5 1474.17)"/><path d="M1308.5 1471.41C1279.27 1479.17 1247.78 1479.11 1219.11 1471.24" stroke="#000000" stroke-width="4.58333" stroke-miterlimit="8" fill="none" fill-rule="evenodd"/><path d="M2371.5 566.125 2443.68 1535.5 3806.5 1391.12 3729.16 545.5 2371.5 566.125Z" stroke="#000000" stroke-width="4.58333" stroke-miterlimit="8" fill="#FFFFFF" fill-rule="evenodd"/></g></svg>